<svg width="24" height="24" viewBox="0 0 24 24" fill="none" xmlns="http://www.w3.org/2000/svg"><path d="M0 12C0 5.373 5.373 0 12 0h10a2 2 0 0 1 2 2v10c0 6.627-5.373 12-12 12h-1C4.925 24 0 19.075 0 13v-1z" fill="#5AB986"/><path d="M0 12C0 5.373 5.373 0 12 0h10a2 2 0 0 1 2 2v10c0 6.627-5.373 12-12 12h-1C4.925 24 0 19.075 0 13v-1z" fill="url(#paint0_linear_50_3)" fill-opacity=".2"/><path d="M8.925 20H6.858V9.4c0-1.526.49-2.77 1.467-3.733.992-.963 2.215-1.444 3.666-1.444 1.6 0 2.8.407 3.6 1.222.815.8 1.223 1.785 1.223 2.955 0 1.497-.697 2.57-2.09 3.223v.088c1.912.548 2.867 1.874 2.867 3.978 0 2.874-1.696 4.311-5.089 4.311H9.726v-1.956h2.755c1.022 0 1.77-.207 2.245-.622.474-.415.71-1.081.71-2 0-.8-.258-1.414-.777-1.844-.504-.43-1.193-.644-2.067-.644h-2.2v-1.845h1.423c.8 0 1.481-.215 2.044-.644.578-.445.867-1.037.867-1.778 0-.711-.223-1.304-.667-1.778-.43-.474-1.133-.71-2.111-.71-.889 0-1.615.28-2.178.844-.563.548-.844 1.355-.844 2.422V20z" fill="#fff"/><defs><linearGradient id="paint0_linear_50_3" x1=".893" y1="24.176" x2="24.703" y2="-.411" gradientUnits="userSpaceOnUse"><stop stop-opacity=".68"/><stop offset=".919" stop-color="#F8F8F8"/></linearGradient></defs></svg>